<?xml version="1.0" encoding="UTF-8" standalone="no"?>
<svg
   xmlns:dc="http://purl.org/dc/elements/1.1/"
   xmlns:cc="http://creativecommons.org/ns#"
   xmlns:rdf="http://www.w3.org/1999/02/22-rdf-syntax-ns#"
   xmlns:svg="http://www.w3.org/2000/svg"
   xmlns="http://www.w3.org/2000/svg"
   xmlns:sodipodi="http://sodipodi.sourceforge.net/DTD/sodipodi-0.dtd"
   xmlns:inkscape="http://www.inkscape.org/namespaces/inkscape"
   width="11.940343in"
   height="19.035469in"
   viewBox="0 0 3582.1046 5710.6409"
   id="svg4184"
   version="1.1"
   inkscape:version="0.91 r13725"
   sodipodi:docname="BET_YFT_SKJ.svg">
  <metadata
     id="metadata4191">
    <rdf:RDF>
      <cc:Work
         rdf:about="">
        <dc:format>image/svg+xml</dc:format>
        <dc:type
           rdf:resource="http://purl.org/dc/dcmitype/StillImage" />
        <dc:title></dc:title>
      </cc:Work>
    </rdf:RDF>
  </metadata>
  <defs
     id="defs4189" />
  <sodipodi:namedview
     pagecolor="#ffffff"
     bordercolor="#666666"
     borderopacity="1"
     objecttolerance="10"
     gridtolerance="10"
     guidetolerance="10"
     inkscape:pageopacity="0"
     inkscape:pageshadow="2"
     inkscape:window-width="1215"
     inkscape:window-height="776"
     id="namedview4187"
     showgrid="false"
     inkscape:zoom="0.52281394"
     inkscape:cx="175.1955"
     inkscape:cy="434.26725"
     inkscape:window-x="65"
     inkscape:window-y="24"
     inkscape:window-maximized="1"
     inkscape:current-layer="svg4184"
     fit-margin-top="0"
     fit-margin-left="0"
     fit-margin-right="0"
     fit-margin-bottom="0" />
  <path
     id="Selection"
     d="m 1449.2916,3493.8072 c 0,0 8.62,-16.42 8.62,-16.42 4.46,-9.05 5.51,-14.13 11.35,-23 2.24,-3.42 6.43,-15.14 10.37,-15.26 1.26,-0.03 2.12,0.6 2.82,1.59 0.78,1.1 4.65,13.18 4.67,14.67 0,0 -7.95,34 -7.95,34 -0.46,3.27 -0.78,6.78 0,10 1.14,4.11 3.5,6.47 2.88,11 0,0 -3.11,12 -3.11,12 -1.63,9.29 -1.71,20.58 -1.12,30 0.83,13.06 4.21,20.48 4.45,23 0.31,3.18 -1.19,6.65 -1.46,10 -0.3,3.62 0.55,5.67 0.71,9 0.16,3.56 -0.65,5.18 0,8.91 1.8,10.36 9.81,20.86 17.27,27.95 5.3,5.03 13.13,5.21 16.62,7.44 3.07,1.96 3.59,4.93 5.7,7.66 2.49,3.22 6.92,6.17 10.51,8.08 11.1,5.91 15.61,2 25,5.96 0,0 -1,2 -1,2 8.04,3.23 10.37,5.88 20,6.83 7.66,0.75 10.15,-1.56 14,-0.93 5.01,0.83 7.54,5.71 13.91,6.49 0,0 21.09,0.71 21.09,0.71 2.82,-0.15 6.41,-1.22 9,-0.76 6.97,1.22 8.34,7.17 19,7.7 4.26,0.21 6.89,0.09 11,-1.28 2.64,-0.88 6.25,-2.94 8.96,-2.82 3.97,0.18 4.64,3.5 10.03,5.93 2.24,1 11.09,2.06 14.02,2.39 8.9,1.01 15.18,-3.61 21.99,-2.73 8.49,1.1 10.16,6.99 21,6.38 0,0 23,-3.01 23,-3.01 4.98,0.81 9.42,6.6 16,8.06 0,0 33,1.04 33,1.04 2.12,9.41 17.49,13.9 26,14 2.34,0.02 6.87,-0.22 8.9,0.6 3.89,1.57 3.63,5.56 14.1,10.84 6.14,3.1 9.56,1.48 12.69,3.7 3.13,2.22 1.56,5.42 3.82,8.62 3.18,4.52 12.53,4.43 17.49,4.52 0,0 43,4.42 43,4.42 0,0 4,0 4,0 7.6,-0.44 13.06,-5.12 18.74,-9.53 2.29,-1.77 3.64,-2.1 5.97,-4.39 0,0 11.76,-15.35 11.76,-15.35 10.62,-16.01 11.84,-24.36 19.71,-40.43 0,0 4.65,-8 4.65,-8 0,0 9.29,-17 9.29,-17 3.84,-6.05 15.52,-20.17 20.61,-25.99 5.77,-6.59 20.08,-21.12 28.27,-23.88 2.15,-0.57 3.82,-0.29 6,0 -1.32,8.42 -3.98,11.15 -6.82,18.45 0,0 -2.13,6.42 -2.13,6.42 -2.08,4.95 -4.73,10.54 -4.05,16 -4,4.99 -4.2,12 -5.59,18 -2.18,9.38 -0.68,8.5 -1.73,15 0,0 -2.59,13 -2.59,13 0,0 0.56,7 0.56,7 0.21,5.86 -1.64,6.64 0,16 0.74,3.07 3.34,17.57 4.68,19.17 0.85,1.02 1.01,0.59 1.67,0.83 0,0 3,4 3,4 -0.41,9.1 12.77,21.22 20,25.46 0,0 9,6.66 9,6.66 0,0 14.92,8.62 14.92,8.62 0,0 6.12,4.47 6.12,4.47 8.26,5.34 16.95,9.58 22.96,17.79 0,0 -21,0 -21,0 3.25,3.22 5.08,3.49 9,5.47 11.11,5.64 17.47,6.19 28,-1.47 0,0 1,2 1,2 1.73,-2.36 7.31,-1.85 9.82,-0.66 6.17,2.92 7.11,13.69 14.18,15.66 0,0 0,5 0,5 -8.84,-2.91 -9.4,-6.89 -23,-8 4.36,3.72 7.98,3.16 13,5.54 0,0 6.42,3.62 6.42,3.62 0,0 16.58,5.5 16.58,5.5 3.65,1.49 11.32,4.93 15,4.93 10.61,-0.02 19.47,-5.34 25,-5.87 2.08,-0.53 3.96,-0.07 6,0 9.72,1.77 8.03,5.95 16.59,14.36 5.25,5.14 7.09,4.49 11.41,10.92 -8.78,-0.48 -11.13,-4.58 -17,-2 0,0 -12,-6 -12,-6 3.23,3.2 5.23,3.56 9,5.74 4.17,2.41 15.7,8.92 20,9.64 2.36,0.4 5.64,-0.18 8,-0.66 12.7,-2.62 20.68,-11.57 34.25,-7.28 3.93,1.24 11.97,12.71 15.68,16.39 3.36,3.33 9.16,7.3 11.07,11.17 0,0 -10,1 -10,1 -4.02,-6.78 -17.79,-8.75 -25,-7 -3.15,-2.91 -4.18,-2.61 -8,-1 8.87,2.79 7.77,3.63 15,7.45 0,0 12,5.25 12,5.25 2.69,1.16 7.68,4.18 10.28,4.31 3.94,0.2 17.89,-5.5 21.72,-7.55 3.75,-2.01 7.65,-4.8 12.08,-3.76 11.08,2.61 6.18,19.09 19.92,21.3 0,0 3,5 3,5 -8.97,-0.88 -25.68,-6.44 -33,-5 7.55,6.11 9.01,4.4 16.58,7.68 2.65,1.15 5.48,3.46 8.42,3.52 5.75,0.12 18.48,-10.23 28.03,-9 5.63,0.72 7.54,6.45 13.97,11.25 4.18,3.11 6.33,2.53 9,7.55 3.55,-1.71 9.22,-5.38 13,-5.46 7.12,-0.17 11.55,7 16.17,11.12 3.04,2.71 6.21,3.72 9.83,5.34 -4.51,2.86 -5.82,1.19 -10.58,0.93 0,0 -18.42,0 -18.42,0 0,0 0,3.07 0,3.07 5.99,0.62 13.67,4.53 19,3.42 6.87,-1.44 9.4,-7.5 17,-8.07 10.94,-0.81 15.7,5.01 25,8.65 -4.3,3.81 -18.03,4 -24,4.2 5.88,4.8 18.69,4.76 24.82,0 3.02,-2.05 7.31,-7.75 10.22,-8.4 3,-0.67 5.98,1.77 10.96,2.35 5.88,1 9.99,-1.09 16,0 0,0 -20,10.85 -20,10.85 30.12,-0.27 49.64,-30.39 64.05,-53 0,0 9.74,-14 9.74,-14 0,0 12.21,-17 12.21,-17 2.46,-3.48 4.83,-5.66 5,-10 4.71,-1.51 9.97,-9.99 13.04,-14 0,0 12.68,-15.17 12.68,-15.17 0,0 13.29,-17.55 13.29,-17.55 9.75,-12.55 40.43,-46.85 51.99,-56.99 0,0 21,-17.14 21,-17.14 0,0 14,-10.15 14,-10.15 4.43,-0.74 9.61,-5.43 14,-7.74 8.75,-4.6 24.51,-13.91 33.83,-16.02 0,0 11.95,0 11.95,0 0.22,2.6 0.44,10.14 0,12.48 0,0 -12.64,20.28 -12.64,20.28 0,0 -5.6,10 -5.6,10 0,0 -5.33,8 -5.33,8 0,0 -3.31,7.72 -3.31,7.72 0,0 -5.35,7.28 -5.35,7.28 0,0 -8.27,15 -8.27,15 0,0 -11.1,20 -11.1,20 -2.18,4.33 -1.8,6.54 -6.18,9 0.78,5.57 -0.89,7.11 -3.2,12 0,0 -6.37,13.91 -6.37,13.91 0,0 -3.76,5.89 -3.76,5.89 0,0 -9.23,20.03 -9.23,20.03 0,0 -1.44,5.26 -1.44,5.26 0,0 -8.33,15.63 -8.33,15.63 0,0 -1.8,6.29 -1.8,6.29 -2.46,6.99 -6.18,11.09 -5.87,18.99 -5.54,5.55 -12.59,26.76 -15.74,35 0,0 -5.56,14 -5.56,14 0,0 -2.2,7.68 -2.2,7.68 -1.92,4.55 -4.64,7.52 -4.99,13.32 0,0 0.7,7 0.7,7 0,0 0,8 0,8 0,0 1.77,6 1.77,6 0,0 2.56,12 2.56,12 0,0 4.15,20 4.15,20 0,0 16.52,49 16.52,49 0,0 6.96,15 6.96,15 0,0 4.02,11 4.02,11 0,0 5.81,12 5.81,12 0,0 2,-2 2,-2 -0.51,7.2 1.94,9.56 4.44,16 0,0 2.38,8 2.38,8 1.42,4.18 6.14,12.95 9.18,16 0.72,7.87 7.94,17.54 12.2,24.01 0,0 11.94,17.27 11.94,17.27 0,0 8.7,13.72 8.7,13.72 6.51,8.56 14.58,16.6 18.16,27 -13.04,7.13 -30.71,2.99 -43.72,-2.86 -4.64,-2.09 -12.24,-7.86 -16.28,-8.14 -1.27,-4.21 -9.84,-10.08 -14,-11 -1.46,-5.12 -8.96,-10.73 -13,-14.28 0,0 -21.96,-21.72 -21.96,-21.72 -6.88,-7.12 -19.45,-22.75 -25.29,-31 0,0 -6.92,-11 -6.92,-11 0,0 -19.73,-25 -19.73,-25 0,0 -6.94,-12 -6.94,-12 0,0 -4.44,-6.42 -4.44,-6.42 0,0 -6.13,-10.58 -6.13,-10.58 0,0 -13.88,-22 -13.88,-22 -3.22,-4.94 -6.7,-7.79 -6.71,-14 0,0 -16,-21 -16,-21 -0.9,-3.84 -4.72,-7.78 -7.14,-10.91 -7.27,-9.39 -18.29,-24.08 -31.86,-21.09 0,0 8,5 8,5 -7.16,0.97 -15.1,5.09 -21,4.24 -8.52,-1.22 -14.51,-9.27 -19,-10.56 -3.27,-0.93 -15.31,2.25 -19,3.32 6.19,7.98 17.75,7.55 27,7 0,0 0,3 0,3 -9.56,0.68 -17.06,9.23 -27,8.56 -7.79,-0.53 -11.45,-7.31 -17.04,-9.97 -4.73,-2.24 -7.74,0.06 -12.13,1.35 -5.78,1.7 -11.34,0.89 -15.83,5.06 14.05,3.71 13.5,5.1 29,4.7 3.8,-0.09 4.07,0.18 8,-0.7 -1.82,5.05 -10.39,6.18 -15,8.74 -5.47,3.04 -11.48,5.98 -18,5.41 -8.06,-0.7 -15.49,-8.45 -27.83,-10.06 -5.32,-0.7 -10.33,2.48 -15.17,4.11 -5.2,1.75 -4.62,0 -10,3.8 11.58,4.48 19.29,4.93 31.58,3.21 0,0 8.42,-1.21 8.42,-1.21 -1.79,5.04 -6.46,5.42 -10.83,7.81 -5.22,2.84 -19.74,9.52 -25.17,9.89 -2.41,0.16 -7.54,-1.43 -10,-2.22 -4.6,-1.47 -17.02,-8.4 -20.42,-8.33 -2.72,0.05 -9.8,3.13 -12.58,4.27 -7.11,2.92 -14.28,5.95 -22,6.58 3.49,3.21 5.47,2.95 10,3.58 0,0 26,0.77 26,0.77 4.55,-0.29 11.34,-1.93 15,0.65 0,0 -11,5.52 -11,5.52 -10.33,5.85 -17.3,10.86 -30,10.44 -10.53,-0.35 -20.8,-7.3 -31,-9.24 -4.55,-0.86 -8.01,1.91 -12,3.51 -6.94,2.79 -18.85,5.67 -24,10.83 0,0 28,0 28,0 0,0 9,-1 9,-1 0,0 7.28,0.65 7.28,0.65 0,0 8.72,-1.71 8.72,-1.71 -2.26,3.44 -7.36,4.71 -11,7.21 -7.82,5.36 -21.17,12.87 -31,12.15 0,0 -17.04,-3.04 -17.04,-3.04 -5.52,-1.41 -11.06,-4.29 -16.96,-4.12 -5.16,0.15 -18.46,7.01 -22,10.8 9.78,4.46 17.42,2.86 28,3.26 3.55,0.13 5.57,-0.58 9,0.74 0,0 -14,6.32 -14,6.32 -8.32,4.01 -17.61,10.08 -27,10.59 -5.89,0.31 -23.01,-6.85 -27,-7.03 -4.9,-0.22 -19.08,7.93 -23,11.12 0,0 19.69,3.39 19.69,3.39 0,0 2.31,3.61 2.31,3.61 -9.77,0.73 -11.37,1.93 -20,5.99 -4.18,1.97 -14.98,5.96 -17.58,8.35 -5.4,4.98 -11.35,12.11 -11.95,19.74 0,0 0,16.92 0,16.92 0,0 0,7 0,7 0.19,2.9 1.19,5.26 1.97,8 2.23,7.82 4.36,15.52 7.65,23 0,0 5.68,12 5.68,12 0,0 14.59,29.01 14.59,29.01 2.63,4.85 4.58,10.15 8.64,13.99 0,0 -1,7 -1,7 0,0 -11,-1.63 -11,-1.63 0,0 -22,-10.6 -22,-10.6 0,0 -8,-3.76 -8,-3.76 0,0 -6,-4.15 -6,-4.15 0,0 -9,-5.06 -9,-5.06 0,0 -16,-12.13 -16,-12.13 0,0 -20.82,-17.63 -20.82,-17.63 0,0 -10.18,-7.04 -10.18,-7.04 -3.05,-6.46 -10.91,-12.79 -16.25,-17.75 -5.99,-5.57 -20.25,-19.95 -24.75,-26.25 -3.1,2.14 -13.4,2.92 -17.74,3.91 0,0 -15.09,7.21 -15.09,7.21 0,0 -18.17,2.47 -18.17,2.47 0,0 -21.91,5.52 -21.91,5.52 0,0 -22.09,3.03 -22.09,3.03 0,0 -14.01,3.27 -14.01,3.27 0,0 -21.99,3.81 -21.99,3.81 0,0 -28,5.82 -28,5.82 0,0 -10,1.11 -10,1.11 0,0 -8.91,1.7 -8.91,1.7 0,0 -20.09,2.78 -20.09,2.78 0,0 -16.42,1.25 -16.42,1.25 0,0 -16.58,2.13 -16.58,2.13 0,0 -9,0 -9,0 0,0 -21,1.99 -21,1.99 -6.67,0.11 -6.24,1.34 -11,1.87 -4.53,0.51 -10.3,-1.04 -14,2.13 0,0 -19,1.13 -19,1.13 0,0 -11,0 -11,0 0,0 -15,1.46 -15,1.46 0,0 -56,1.41 -56,1.41 0,0 -14,1.53 -14,1.53 0,0 -12.58,-0.55 -12.58,-0.55 0,0 -20.42,0 -20.42,0 0,0 -21,0 -21,0 0,0 -6.54,1.57 -6.54,1.57 0,0 -7.46,1.45 -7.46,1.45 0,0 0,3 0,3 0,0 -1,-3 -1,-3 -4.69,3.36 -15.21,3.76 -21,3.84 0,0 -19,1.14 -19,1.14 0,0 -17,0 -17,0 0,0 -11,0 -11,0 -6.6,0.1 -6.29,-0.72 -11,-1.06 0,0 -7,0 -7,0 -6.22,-0.39 -4.37,-0.93 -12,-0.66 -6.25,0.21 -8.44,-0.96 -14,-1.96 0,0 -8,0 -8,0 0,0 -18,-2.88 -18,-2.88 0,0 -9,-0.5 -9,-0.5 -9.91,-0.59 -12.53,-1.4 -22,-3.92 5.11,6.89 13.1,11.58 14.75,14.15 1.35,2.13 1.27,6.29 1.18,8.76 -0.22,6.28 1.31,19.69 -1.93,24.09 -6.54,-7.26 -6.21,2.76 -7.57,5.59 -0.71,1.48 -1.28,1.54 -2.43,2.41 -0.3,5.92 -12.76,20.11 -10,29 -4.28,2.61 -5.3,7.3 -7.18,11.83 -2.22,5.38 -6.11,27.3 -6.03,33.17 0,0 -0.6,12 -0.6,12 0,0 1.89,7 1.89,7 0,0 -0.69,14.87 -0.69,14.87 -0.84,2.03 -1.68,2.17 -3.39,3.13 -4.93,-5.65 -9.91,-8.31 -12,-16 0,0 -2.4,-0.77 -2.4,-0.77 0,0 -11.6,-21.23 -11.6,-21.23 0,0 0,2 0,2 0,0 -1,0 -1,0 0.25,-5.93 -3.86,-11.73 -6.41,-17 0,0 -8.5,-21 -8.5,-21 0,0 -2.98,-9 -2.98,-9 0,0 -3.52,-9 -3.52,-9 0,0 -4.87,-19 -4.87,-19 0,0 -7.44,-27 -7.44,-27 0,0 -3.09,-14 -3.09,-14 0,0 -2.31,-15 -2.31,-15 -0.7,-3.11 -1.64,-9.39 -3.6,-11.69 -2.06,-2.39 -8.9,-2.98 -12.28,-3.84 0,0 -13,-3.15 -13,-3.15 -7.31,-2.29 -11.81,-4.66 -20,-4.32 0,0 1,-2 1,-2 -4.11,0.23 -7.98,-1.31 -12.01,-2.14 0,0 -10.99,-2.69 -10.99,-2.69 0,0 -8,-1.3 -8,-1.3 0,0 -6,-2.16 -6,-2.16 -3.93,-1.08 -9.17,-0.5 -12,-3.71 -7.14,0.93 -13.17,-2.42 -19.72,-3.95 0,0 -12.28,-2.67 -12.28,-2.67 0,0 -17,-5.21 -17,-5.21 0,0 -7,-1.42 -7,-1.42 0,0 -7,-2.65 -7,-2.65 0,0 -13,-3.51 -13,-3.51 0,0 -9,-1.96 -9,-1.96 0,0 -10,-3.34 -10,-3.34 0,0 -9,-1.91 -9,-1.91 0,0 -20,-6.66 -20,-6.66 0,0 -11,-2.91 -11,-2.91 0,0 -7,-3.1 -7,-3.1 0,0 -8.91,-2.68 -8.91,-2.68 0,0 -53.12998,-25.64 -53.12998,-25.64 0,0 -15.96,-11.98 -15.96,-11.98 0,0 -14.91,-9.08 -14.91,-9.08 0,0 -15.09,-5.79 -15.09,-5.79 0,0 -10,-5.07 -10,-5.07 0,0 -5.58,-2.24 -5.58,-2.24 0,0 -6.42,-3.83 -6.42,-3.83 0,0 -13,-5.17 -13,-5.17 0,0 -11,-5.85 -11,-5.85 0,0 -16,-6.41 -16,-6.41 0,0 -15,-7.04 -15,-7.04 0,0 -29.83,-12.52 -29.83,-12.52 0,0 -8.17,-4.49 -8.17,-4.49 0,0 -11,-5.54 -11,-5.54 -7.72,-3 -10.47,-1.22 -15,-9.38 -6.19,2.34 -6.53,0.5 -12,-1.89 0,0 -21,-9.49 -21,-9.49 0,0 -27,-12.22 -27,-12.22 0,0 -11,-6.57 -11,-6.57 -10.87,-5.05 -13.02,-3.55 -23.58,-12.87 -6.98,-6.16 -15.01,-15.9 -13.06,-26.03 1.32,-6.82 7.46,-5.6 12.64,-6.02 0,0 14.99,-2.84 14.99,-2.84 3.73,-1.13 4.94,-3.75 8.1,-5.66 3.63,-2.19 11.58,-4.39 15.9,-4.59 0,0 21.01,2.19 21.01,2.19 0,0 11.17,1.11 11.17,1.11 0,0 7.83,0 7.83,0 0,0 8,1.72 8,1.72 5.88,0.85 6.6,0.35 13,2.16 -5.22,-7.11 -21.65,-16.11 -30.01,-19.99 -10.21,-4.74 -20.27,-10.99 -30.99,-14.49 0,0 -31,-8.52 -31,-8.52 4.1,-15.17 14.66,-15.85 28,-19.17 0,0 18,-5.94 18,-5.94 0,0 11,-2.81 11,-2.81 0,0 8,-2.98 8,-2.98 5.64,-1.67 17.99,-4.4 22,-8.1 6.65,0.14 12.03,-3.42 18,-5.73 0,0 29,-9.53 29,-9.53 0,0 21,-6.12 21,-6.12 0,0 17,-6.88 17,-6.88 0,0 27,-9.85 27,-9.85 0,0 43,-15.85 43,-15.85 0,0 7,-2.08 7,-2.08 0,0 18,-7.42 18,-7.42 0,0 13,-3.62 13,-3.62 0,0 17.99998,-6.34 17.99998,-6.34 0,0 61.72,-15.99 61.72,-15.99 0,0 8.28,-1.1 8.28,-1.1 0,0 100,-19.4 100,-19.4 0,0 16.04,-2.24 16.04,-2.24 0,0 39.96,-7.39 39.96,-7.39 0,0 19,-3.09 19,-3.09 0,0 27,-3.64 27,-3.64 0,0 22,-4.1 22,-4.1 0,0 25,-3.21 25,-3.21 0,0 13.17,-2.12 13.17,-2.12 2.96,-0.22 14.67,-1.06 16.79,-1.9 6.17,-2.44 5.92,-10.88 7.93,-16.4 0,0 2.97,-7.58 2.97,-7.58 0,0 0.95,-7.42 0.95,-7.42 0.91,-4.74 3.04,-11.43 4.72,-16 2.79,-7.58 9.45,-21.34 8.47,-29 4.6,-4.6 3.79,-10.16 5.83,-16 0,0 4.72,-9.99 4.72,-9.99 0,0 5.78,-16.01 5.78,-16.01 2.18,-5.09 4.88,-10.36 4.67,-16 4.7,-4.45 6.4,-11.95 8.34,-18 0,0 5.8,-15 5.8,-15 1.31,-3.59 2.86,-9.6 5.86,-12 0,0 -1,-4 -1,-4 4.54,-4.2 12.05,-21.8 12,-28 6.03,-5.57 5.34,-10.79 8.67,-17.58 z m 102.33,176.58 c 0,0 1,1 1,1 0,0 0,-1 0,-1 0,0 -1,0 -1,0 z m 1232,49 c 0,0 -1,1 -1,1 0,0 0,-1 0,-1 0,0 1,0 1,0 z m -723,30 c 0,0 1,1 1,1 0,0 0,-1 0,-1 0,0 -1,0 -1,0 z m 684,24 c 0,0 1,1 1,1 0,0 0,-1 0,-1 0,0 -1,0 -1,0 z m -590,33 c 0,0 1,1 1,1 0,0 0,-1 0,-1 0,0 -1,0 -1,0 z m 80,40 c 0,0 1,1 1,1 0,0 0,-1 0,-1 0,0 -1,0 -1,0 z m 63,11 c 0,0 1,1 1,1 0,0 0,-1 0,-1 0,0 -1,0 -1,0 z m -1524.99998,15 c 0,0 1,1 1,1 0,0 0,-1 0,-1 0,0 -1,0 -1,0 z m 1583.99998,18 c 0,0 1,1 1,1 0,0 0,-1 0,-1 0,0 -1,0 -1,0 z m 47,27.21 c 0,0 -17,0.79 -17,0.79 0,0 0,2 0,2 8.51,3.54 23.23,11.34 29,0 0,0 -12,-2.79 -12,-2.79 z m 54,91.79 c 0,0 1,1 1,1 0,0 0,-1 0,-1 0,0 -1,0 -1,0 z m -30,2 c 0,0 -1,1 -1,1 0,0 0,-1 0,-1 0,0 1,0 1,0 z m -223,82 c 0,0 1,1 1,1 0,0 0,-1 0,-1 0,0 -1,0 -1,0 z m -1212.99998,24 c 0,0 1,1 1,1 0,0 0,-1 0,-1 0,0 -1,0 -1,0 z m 1134.99998,28 c 0,0 1,1 1,1 0,0 0,-1 0,-1 0,0 -1,0 -1,0 z m -169,40 c 0,0 1,1 1,1 0,0 0,-1 0,-1 0,0 -1,0 -1,0 z m -745,5 c 0,0 1,1 1,1 0,0 0,-1 0,-1 0,0 -1,0 -1,0 z m 177,57 c 0,0 1,1 1,1 0,0 0,-1 0,-1 0,0 -1,0 -1,0 z m -9,30 c 0,0 1,1 1,1 0,0 0,-1 0,-1 0,0 -1,0 -1,0 z m -7,12 c 0,0 1,1 1,1 0,0 0,-1 0,-1 0,0 -1,0 -1,0 z"
     style="fill:#f40020;fill-opacity:1;stroke:#000000;stroke-width:1"
     inkscape:connector-curvature="0" />
  <path
     id="Selection-3"
     d="m 1785.7129,2295.4618 c 2.25,3.72 7.52,9.89 11.39,11.83 8.12,4.06 21.8,-0.43 28.91,-5.01 11.35,-7.31 18.32,-18.91 25.54,-29.82 0,0 17.73,-28 17.73,-28 0,0 12.63,-23 12.63,-23 0,0 26.36,-48 26.36,-48 0,0 30.1101,-47 30.1101,-47 0,0 9.1399,-16 9.1399,-16 0,0 12.84,-19 12.84,-19 0,0 4.95,-8 4.95,-8 0,0 6.3,-8 6.3,-8 0,0 3.91,-7 3.91,-7 0,0 6.83,-9 6.83,-9 0,0 12.08,-17 12.08,-17 0,0 9.35,-10.17 9.35,-10.17 0,0 10.9001,-13.55 10.9001,-13.55 0,0 7.38,-8.28 7.38,-8.28 0,0 6.81,-9 6.81,-9 0,0 8.5499,-10 8.5499,-10 0,0 5.88,-8 5.88,-8 0,0 14.38,-15.17 14.38,-15.17 0,0 12.59,-13.7 12.59,-13.7 0,0 7.74,-6.26 7.74,-6.26 0,0 5.2601,-5.7 5.2601,-5.7 0,0 10.83,-9.59 10.83,-9.59 0,0 19.09,-17.92 19.09,-17.92 17.0699,-14.44 30.3299,-23.6 48.91,-35.67 8.37,-5.44 21.09,-15.31 31,-15.99 -1.57,7.37 -4.85,7.25 -10,12.05 0,0 -14.28,14.51 -14.28,14.51 0,0 -8.51,6.95 -8.51,6.95 0,0 -5.8901,7.32 -5.8901,7.32 0,0 -12.82,13.45 -12.82,13.45 0,0 -10.18,14.4 -10.18,14.4 0,0 -7.19,6.41 -7.19,6.41 0,0 -17.4199,21.91 -17.4199,21.91 0,0 -8.56,15 -8.56,15 0,0 -3.88,6 -3.88,6 0,0 -2.99,6 -2.99,6 0,0 -6.52,8 -6.52,8 0,0 -7.9601,15 -7.9601,15 0,0 -4.62,12 -4.62,12 -1.04,3.53 -0.2,4.36 -1.81,8 0,0 -11.56,22 -11.56,22 0,0 -7.51,23 -7.51,23 -1.22,4.18 -3.57,10.87 -3.79,15 0.16,2.01 0.4,2.93 0,5 0,0 -5.41,11 -5.41,11 0,0 -4.13,11 -4.13,11 0,0 -5.87,15 -5.87,15 -0.46,2.87 0.77,4.3 0,7 -1.0699,2.25 -3.3299,4.05 -4.8899,8 0,0 -7.21,31 -7.21,31 6.97,4.06 0.11,6.61 -2.69,17 0,0 -2.85,13 -2.85,13 -0.25,3.59 1.7,5.09 0.81,9 -1.69,7.37 -9.4701,20.52 -3.27,27 -2.2,6.19 -7.0701,14.33 -6.9001,20.99 0.12,4.92 2.75,5.13 2.68,10.02 0,0 -1.04,10.9 -1.04,10.9 0.46,3.97 3.6701,4.53 4.0601,9.09 0.3,3.48 -1.86,6.37 -1.61,10 0.23,3.32 2.07,5.2 3.09,9 1.09,4.06 0.34,8.33 1.75,11.91 1.18,3.01 2.82,3.81 4.43,6.18 4.94,7.25 1.02,17.47 13.5399,17.91 1.67,5.68 10.31,14.32 16,16 -2.51,4.04 -10.42,6.81 -15,8 2.54,2.83 3.5,3.42 7,4.94 3.97,1.72 9.72,4.47 14,3.49 9.67,-2.21 13.94,-12.49 25,-12.4 10.6401,0.09 13.6001,8.29 19.3401,14.93 0,0 8.66,8.04 8.66,8.04 0,0 -23,0 -23,0 2.59,4.63 10.06,6.58 15,8.26 0,0 12,4.65 12,4.65 8.04,2.98 13.0899,3.82 20.9999,7.83 3.77,1.91 12.95,6.31 17,5.24 6.8301,-1.79 25.9301,-16.5 35.0001,-16.37 12.67,0.18 18.75,15.74 27.32,23.3 3.8999,3.44 9.9399,5.81 12.6799,10.09 -8.99,-0.41 -9.95,-2.09 -14.9999,-2.79 0,0 -11,-1.01 -11,-1.01 -6.64,-1.25 -11.26,-2.82 -18,-1.2 0,0 0,2 0,2 0,0 45.9999,20.9401 45.9999,20.9401 4.8001,2.3 14.0801,8.21 19.0001,7.44 4.56,-0.71 15.43,-8.3 20,-10.88 7.15,-4.0401 14.82,-5.7101 23,-5.4801 12.41,0.34 16.59,11.4201 32,21.0901 4.99,3.13 15.84,6.1 18,8.88 0,0 -11,0 -11,0 -6.35,0.1 -12.71,-0.96 -19,-1.85 -10.76,-1.13 -26.44,-2.03 -37,0 0,0 0,1.86 0,1.86 0,0 29,12.5499 29,12.5499 0,0 10,3.48 10,3.48 4.38,1.94 15.63,7.59 20,7.55 3.14,-0.02 8.12,-2.87 11,-4.34 0,0 22,-13.24 22,-13.24 2.98,-1.8799 8.61,-5.4799 12,-6.0399 3.45,-0.58 9.04,1.78 12,3.52 6.3,3.6899 16.45,14.8599 23,20.5699 0,0 11,7.95 11,7.95 -9.1,3.7 -16.67,-0.95 -26,-1 -14.6,-0.07 -17.65,-0.4 -32,4 11.1,4.7 23.38,8.09 35,11.36 3.82,1.08 10.38,3.9801 14,3.0901 3.09,-0.76 7.46,-4.4301 10,-6.4501 5.55,-4.42 20.63,-17.89 26,-20 12.95,-5.08 28.52,13.63 39,20.31 4.49,2.86 11.19,5.1501 14,9.6901 -11.19,0 -36.14,-0.59 -46,1.38 0,0 -8,2.62 -8,2.62 1.36,1.7399 1.99,2.8599 4.04,3.9799 0,0 21.96,6.5 21.96,6.5 4.3,0.94 4.03,0.19 9,1.98 5.54,2.0101 10.36,5.0001 16,1.6601 9.56,-5.6601 21.14,-22.83 32,-23.06 10.37,-0.2201 17.33,9.61 25,15.4399 8.19,6.22 12.94,6.4801 22,9.5001 0,0 0,2 0,2 -8.52,2.42 -13.21,-0.15 -21,-0.62 0,0 -26,3.21 -26,3.21 -1.86,0.68 -2.47,1.33 -4,2.41 13.16,6.66 31.53,9.93 46,12.96 5.91,1.23 12.82,4.4499 19,2.48 2.35,-0.75 4.88,-2.67 7,-4.01 0,0 8,-5.03 8,-5.03 6.92,-5.07 12.3899,-11.72 21.9999,-11.33 10.1,0.41 11.08,7.93 17.04,13.89 5.49,5.49 14.35,8.8599 21.96,10.0399 -2.67,3.41 -5.05,1.04 -9,1.21 0,0 -13,1.26 -13,1.26 -4.66,0.87 -5.32,1.94 -11,2.53 4.04,4 8.61,3.62 14,4.42 0,0 14,2.04 14,2.04 0,0 9,2.53 9,2.53 0,0 8,0 8,0 3.88,0.55 11.39,2.06 14.83,0 4.37,-2.33 15.27,-16.7199 23.17,-17.8499 10.35,-1.47 14.7,4.2399 23,7.7599 11.67,4.93 13.29,3.18 24,5.1 -3.02,4.51 -8.07,2.73 -13,3.09 0,0 -23,3.65 -23,3.65 -2.11,0.8 -3.28,1.91 -5,3.26 11.56,3.75 15.44,0.91 26,2.43 4.46,0.64 19.57,3.5 22.98,2.45 2.83,-0.87 16.48,-14.03 22.02,-14.72 6.62,-0.83 11.77,4 17,7.08 4.06,2.39 7.42,3.11 12,3.76 0,0 -2.27,2.62 -2.27,2.62 0,0 -15.73,3.17 -15.73,3.17 5.19,4.99 14.57,3.94 19.99,0 0,0 7.18,-6.94 7.18,-6.94 2.69,-2.03 4.7,-2.35 7.74,-5.07 0,0 7.13,-7.78 7.13,-7.78 5.62,-5.88 11.68,-11.5799 17.96,-16.7499 0,0 27,-16.99 27,-16.99 0,0 12,-6.3801 12,-6.3801 10.3,-6.29 20.64,-13.5199 30,-21.12 0,0 13,-11.32 13,-11.32 0,0 14,-11.61 14,-11.61 0,0 13,-12.74 13,-12.74 0,0 11,-9.2599 11,-9.2599 0,0 19.09,-18.25 19.09,-18.25 0,0 26.9101,-23.8701 26.9101,-23.8701 0,0 9.9999,-9.27 9.9999,-9.27 0,0 24,-18.76 24,-18.76 0,0 10,-9.24 10,-9.24 0,0 11,-7.96 11,-7.96 0,0 10,-8.19 10,-8.19 0,0 18.0001,-12.2 18.0001,-12.2 0,0 18.9999,-14.42 18.9999,-14.42 0,0 11,-7.1 11,-7.1 7.72,-5.5 14.66,-10.74 23,-15.39 0,0 11.0001,-6.05 11.0001,-6.05 0,0 11,-4.74 11,-4.74 0,0 13,-6.76 13,-6.76 0,0 8,-2.8 8,-2.8 0,0 10.9999,-5.24 10.9999,-5.24 0,0 35.0001,-11.42 35.0001,-11.42 0,0 27,-3.94 27,-3.94 3.09,-0.03 7.34,1.78 5.83,5.6 -1.14,2.91 -12.74,10.58 -15.82,13.35 0,0 -8.1,8.54 -8.1,8.54 0,0 -19.1901,17.85 -19.1901,17.85 0,0 -14.55,13.43 -14.55,13.43 0,0 -9.19,13 -9.19,13 0,0 -7.43,9.72 -7.43,9.72 0,0 -7.7999,8.28 -7.7999,8.28 0,0 -8.56,13.91 -8.56,13.91 0,0 -7.71,8.1 -7.71,8.1 0,0 -5.74,7.99 -5.74,7.99 0,0 -18.4601,19.28 -18.4601,19.28 0,0 -23.7,24.4401 -23.7,24.4401 0,0 -7.41,7.28 -7.41,7.28 0,0 -13.5699,16.04 -13.5699,16.04 0,0 -4.91,6.7899 -4.91,6.7899 0,0 -25.8701,29.17 -25.8701,29.17 0,0 -15.37,20.0001 -15.37,20.0001 0,0 -4.7,6.5799 -4.7,6.5799 0,0 -18.31,20.4201 -18.31,20.4201 0,0 -9.77,13 -9.77,13 -4.73,6.2199 -10.79,14.3999 -13.04,21.9999 -1.48,5 -2.14,12.83 -1.33,18 0.72,4.58 3.0201,7.2001 1.69,12.0001 -0.77,2.81 -7.96,15.99 -9.8,19 -1.57,2.55 -4.48,5.94 -4.08,9 0.59,4.43 9.87,14.7799 11.32,20.9999 2.6701,11.44 -9.54,17.63 -5.89,30.0001 1.15,3.88 5.54,10.28 7.56,14 0,0 13.97,25 13.97,25 0,0 7.99,12.7999 7.99,12.7999 1.06,2.28 0.89,3.97 2.77,7.2 0,0 4.07,6.0001 4.07,6.0001 0,0 15.07,25 15.07,25 0,0 6.47,11 6.47,11 0,0 3.92,7.96 3.92,7.96 0,0 10.62,14.04 10.62,14.04 4.16,5.87 3.79,7.04 5.74,10 0,0 12.4101,15.42 12.4101,15.42 0,0 10,17.58 10,17.58 0,0 7.4099,11.98 7.4099,11.98 0,0 6.25,7.11 6.25,7.11 4.27,5.65 4.03,9.02 11.21,11.91 0,0 9,19 9,19 5.67,1.83 7.13,7.04 10.98,11.58 0,0 27.1901,33.42 27.1901,33.42 5.63,6.26 26.5299,26.81 32.8299,31.63 0,0 12,7.86 12,7.86 0,0 19.0001,13.03 19.0001,13.03 0,0 23,16.8 23,16.8 0,0 7,3.34 7,3.34 0,0 22.9999,11.72 22.9999,11.72 0,0 7.76,3.88 7.76,3.88 3.5401,2.45 7.8701,8.72 9.2401,12.74 0,0 -1,1 -1,1 -10.6101,0.26 -21.4401,0.1 -32,-1.18 0,0 -8,-1.73 -8,-1.73 -33.79,-6.4 -52.6501,-13.32 -84,-26.8 0,0 -23,-9 -23,-9 0,0 -14.0001,-6.61 -14.0001,-6.61 0,0 -8,-3.08 -8,-3.08 0,0 -13,-8.15 -13,-8.15 0,0 -16,-8.91 -16,-8.91 -12.3099,-8.25 -24.0399,-17.58 -35.28,-27.19 0,0 -5.21,-3.98 -5.21,-3.98 0,0 -3.83,-3.97 -3.83,-3.97 0,0 -7.68,-5.53 -7.68,-5.53 0,0 -8.17,-8.45 -8.17,-8.45 0,0 -10.66,-9.7 -10.66,-9.7 0,0 -21.44,-22.63 -21.44,-22.63 0,0 -10.27,-10.26 -10.27,-10.26 0,0 -6.58,-8.83 -6.58,-8.83 0,0 -8.14,-9.09 -8.14,-9.09 0,0 -20.2,-25.87 -20.2,-25.87 0,0 -7.34,-7.65 -7.34,-7.65 0,0 -10.64,-13.39 -10.64,-13.39 0,0 -25.18,-29.39 -25.18,-29.39 0,0 -9.55,-11.61 -9.55,-11.61 -9.18,-10.19 -21.52,-21.64 -31.83,-30.83 0,0 -9,-7.34 -9,-7.34 0,0 -14.09,-13.01 -14.09,-13.01 0,0 -8.91,-6.34 -8.91,-6.34 -6.02,-4.6 -27.06,-22.98 -31.33,-28.49 -6.56,-8.46 -3.26,-5.23 -6.61,-11.99 0,0 -3.38,-6 -3.38,-6 0,0 -3.35,-10.0001 -3.35,-10.0001 -2.83,-6.86 -10.8,-16.21 -18.33,-17.73 -3.92,-0.79 -9.1,0.03 -13,0.73 3.54,7.42 11.05,10.37 18,14 0,0 0,2 0,2 -3.08,0.88 -19.58,3.8301 -22,3.26 -2.54,-0.6 -5.97,-2.99 -7.89,-4.73 -4.94,-4.47 -5.3,-10.73 -11.12,-12.97 -4.15,-1.53 -11.68,-0.71 -15.99,0 -7.12,1.05 -20.87,2.58 -27,5.44 6.14,2.8 12.26,5.01 19,5.85 4.77,0.59 12.23,0.37 16,3.15 0,0 -16,6.6401 -16,6.6401 -10.05,5.19 -23.23,14.13 -35,13.26 -11.21,-0.82 -11.62,-9.52 -24,-18.1601 -1.54,-1.08 -3.14,-2.36 -5,-2.83 -2.79,-0.72 -10.27,2.07 -14,2.67 0,0 -44,10.4201 -44,10.4201 8.82,2.55 31.06,7.08 40,7.2 0,0 10,0 10,0 -3.13,5.52 -7.72,5.21 -13,8.06 0,0 -28,14.99 -28,14.99 -5.11,2.55 -8.14,5.41 -14,3.02 -7.14,-2.91 -14.2499,-10.06 -19.9999,-15.22 -2.42,-2.18 -7,-7.1 -10.04,-7.65 -2.81,-0.5 -10.93,2 -13.96,2.89 0,0 -16,5.61 -16,5.61 0,0 -7,1.72 -7,1.72 0,0 -8,3.38 -8,3.38 1.18,1.39 1.43,1.99 3.11,3.02 3.46,2.11 16.74,5.06 20.89,4.94 0,0 11,-0.87 11,-0.87 0,0 10,0.91 10,0.91 -2.41,3.47 -12.71,6.38 -17,8.47 -7.77,3.77 -16.27,12.85 -25,13.9 -2.54,0.31 -10.53,-1.51 -13,-2.51 -8.61,-3.47 -13.78,-14.82 -23,-16.26 -4.75,-0.74 -12.37,3.14 -17,4.98 -9.56,3.79 -19.95,4.47 -28,11.42 0,0 11,2.7899 11,2.7899 0,0 31,-0.7899 31,-0.7899 -1.8,5.6699 -7.95,6.9599 -13,9.6099 -10.08,5.2901 -27.45,19.5301 -39,15.5801 -7.14,-2.45 -17.37,-16.4401 -23,-17.0401 -2.1,-0.23 -6.78,2.03 -9,2.8401 0,0 -23,9.01 -23,9.01 0,0 0,2 0,2 0,0 11,3.51 11,3.51 0,0 26,-2.51 26,-2.51 -2.44,3.76 -11.73,7.45 -16,10.03 -10.34,6.25 -16.19,15.34 -30,16.58 -2.03,0.43 -5.08,0.5 -7,0 -6.14,-2.47 -13.76,-16.51 -23,-15.3 0,0 -10,3.86 -10,3.86 0,0 -30,11.67 -30,11.67 -5.56,2.14 -5.8,3.68 -12,4.16 6.72,6.63 19.1,5.11 28,5 0,0 17,-3 17,-3 -3.34,6.52 -11.84,7.31 -18,10.26 -8.35,4 -9.47,5.83 -16.28,11.06 0,0 -8.72,5.88 -8.72,5.88 -6.45,4.51 -11.45,8.8 -19.96,6.37 -7.57,-2.16 -12.95,-17.15 -20.04,-17.71 -2.42,-0.18 -11.39,3.98 -14,5.21 0,0 -27,11.93 -27,11.93 0,0 0,2 0,2 0,0 33,4 33,4 -3.2,4.06 -4.79,0.91 -14,5.34 0,0 -12,7.28 -12,7.28 -6.31,4.42 -14.35,12.42 -23.0001,9.82 -3.09,-0.93 -7.35,-4.04 -9.3699,-6.54 -2.62,-3.26 -5.19,-10.19 -11.63,-9.16 -6.69,1.07 -18.38,6.6 -25,8.98 0,0 -14,4.41 -14,4.41 -6.7101,2.21 -7.8201,4.66 -15.0001,3.87 6.23,6.66 14.3801,6.97 23.0001,7 -2.41,3.9 -7.1,5.61 -11,7.85 0,0 -13.0001,8.26 -13.0001,8.26 -2.56,1.32 -5.22,1.96 -8,0.92 -5.23,-1.96 -15.5499,-12.43 -19.0399,-13.11 -2.03,-0.4 -6.77,1.14 -8.96,1.71 0,0 -18,4.37 -18,4.37 0,0 12,12 12,12 -6.19,2.26 -6.01,1.32 -11,2.52 -8.48,2.05 -17.7401,7.59 -23.0001,14.48 0,0 -9,0 -9,0 0,0 1,-4 1,-4 0,0 -10,20 -10,20 -12,2.82 -11.79,19.95 -12.31,21.87 -0.85,3.08 -2.94,3.42 -4.11,6.26 0,0 -1.94,9.87 -1.94,9.87 -1.6799,6.75 -1.9599,14.06 -2.4599,21 -0.53,7.51 3.0499,15.79 3.2499,20 0,0 -2.3399,21 -2.3399,21 0,0 3.5999,15 3.5999,15 1.94,7.18 5.16,10.82 6.63,19 1.21,6.74 -1.91,5.98 1.02,18 1.92,7.91 6.02,14.41 3.66,23 6.83,2.59 6.82,12.29 9.77,18 3.85,7.45 7.17,15.07 11.98,22 1.98,2.86 6.08,6.57 7.27,9 1.63,3.64 -0.6,5.63 0,9 0.55,2.55 2.66,4.7 3.52,7.28 1.11,3.32 0.54,7.54 2.34,10.59 0,0 4.9501,5.37 4.9501,5.37 5.77,7.33 13.64,16.83 18.18,24.76 3.89,6.79 -0.79,7.02 4.7,17 0,0 6.53,10 6.53,10 0,0 15.7699,24.96 15.7699,24.96 0,0 11.63,13.13 11.63,13.13 2.76,3.78 0.57,5.12 2.92,8.91 0,0 13.9301,17 13.9301,17 0,0 15.64,22 15.64,22 13.7,15.85 23.54,22.7 39.7399,35 -0.07,1.34 -0.44,2.62 0,4 1.02,4.88 12.02,12.39 16.1301,15.66 0,0 10,8.53 10,8.53 0,0 24,18.94 24,18.94 5.33,4.51 10.96,7.45 14,13.87 0,0 -4,1.2 -4,1.2 0,0 -19,-5.91 -19,-5.91 0,0 -20,-6.03 -20,-6.03 0,0 -29,-12.75 -29,-12.75 0,0 -26,-12.61 -26,-12.61 0,0 -37.9601,-25.6 -37.9601,-25.6 0,0 -5.32,-4.86 -5.32,-4.86 0,0 -12.72,-10.61 -12.72,-10.61 0,0 -15.0399,-14.75 -15.0399,-14.75 0,0 -19.54,-19.36 -19.54,-19.36 0,0 -5.89,-7.44 -5.89,-7.44 0,0 -7.3101,-8.28 -7.3101,-8.28 0,0 -11.45,-16 -11.45,-16 0,0 -22.14,-28 -22.14,-28 0,0 -11.05,-17 -11.05,-17 0,0 -24.21,-39.72 -24.21,-39.72 0,0 -9.78,-12.28 -9.78,-12.28 0,0 -10.61,-18 -10.61,-18 0,0 0,-4 0,-4 -6.33,-2.11 -7.71,-9.43 -10.37,-15 0,0 -9,-16 -9,-16 0,0 -9.09,-20 -9.09,-20 0,0 -5.05,-10 -5.05,-10 0,0 -2.4,-7 -2.4,-7 0,0 -8.9,-18 -8.9,-18 0,0 -4.6199,-13 -4.6199,-13 0,0 -15.9601,-38 -15.9601,-38 0,0 -8.02,-23 -8.02,-23 0,0 -4.53,-11 -4.53,-11 0,0 -1.93,-7 -1.93,-7 0,0 -4.03,-8 -4.03,-8 -6.63,-13.3 -16.04,-31.55 -29.08,-39.32 0,0 -17,-6.54 -17,-6.54 -6.15,-0.86 -12.04,1.16 -18,2.25 0,0 -12,1.83 -12,1.83 0,0 -8,2.34 -8,2.34 0,0 -15,3.07 -15,3.07 0,0 -15,1.55 -15,1.55 0,0 -12,1.65 -12,1.65 0,0 -51,5.92 -51,5.92 0,0 -12,0 -12,0 0,0 -24,2.11 -24,2.11 0,0 -10,0 -10,0 0,0 -13,0.98 -13,0.98 0,0 -65,3.65 -65,3.65 -13.3,-0.85 -8.23,0.31 -18,0.73 0,0 -7,0 -7,0 0,0 -17,1.61 -17,1.61 0,0 -31,1.17 -31,1.17 0,0 -13,1.22 -13,1.22 0,0 -7,0 -7,0 0,0 -14,1.74 -14,1.74 0,0 -15,0 -15,0 0,0 -13,1.04 -13,1.04 0,0 -58,0 -58,0 0,0 -13.0001,0.68 -13.0001,0.68 -3.2199,-0.24 -4.3199,-0.78 -7.9999,-0.59 0,0 -22,0.61 -22,0.61 0,0 -18,0 -18,0 0,0 -15.0001,0 -15.0001,0 0,0 -29.9999,-1.2 -29.9999,-1.2 0,0 -7,0 -7,0 -11.17,-0.45 -21.84,-5.21 -33,-2.5 0,0 7.21,10 7.21,10 0,0 -1.07,9 -1.07,9 0,0 1.42,7 1.42,7 0,0 0,22 0,22 0,0 -13.2701,17 -13.2701,17 0,0 -9.93,15.1 -9.93,15.1 0,0 -4.36,1.9 -4.36,1.9 3.15,7.67 -1.16,12.49 -3.76,20 0,0 -3,17 -3,17 -1.79,5.17 -6.71,9.11 -10.4,20 0,0 -5.67,23 -5.67,23 0,0 -0.56,13 -0.56,13 0,0 -1.52,8 -1.52,8 0,0 1.05,11 1.05,11 0,0 0,10 0,10 0,0 0,23 0,23 -0.16,12.23 -2.06,18.37 -9.8499,27.91 -3.14,3.84 -9.57,8.58 -13.29,3.09 -1.61,0.59 -3.25,1.33 -5,1.36 -4.9801,0.09 -12.8401,-5.95 -16.1701,-9.4 -6.91,-7.19 -12.6,-13.84 -16.9,-22.96 0,0 -4.33,-14 -4.33,-14 -7.51,-19.15 -13.99,-39.02 -18.85,-59 0,0 -3.45,-18 -3.45,-18 0,0 -2.46,-8 -2.46,-8 -5.06,-21.69 -9.2399,-43.89 -12.1199,-66 0,0 -3.5701,-26 -3.5701,-26 0,0 0,-24 0,-24 0,0 -1.15,-14 -1.15,-14 -0.03,-2.64 0.36,-7.53 -1.02,-9.72 -1.8,-2.85 -5.95,-3.21 -8.98,-3.69 0,0 -11,-0.64 -11,-0.64 0,0 -12,-1.63 -12,-1.63 0,0 -15,-3.15 -15,-3.15 0,0 -13,-1.8 -13,-1.8 0,0 -8,-2.15 -8,-2.15 0,0 -25,-3.94 -25,-3.94 0,0 -15,-3.62 -15,-3.62 0,0 -8.99998,-0.98 -8.99998,-0.98 0,0 -16,-3.97 -16,-3.97 0,0 -33.00002,-9.13 -33.00002,-9.13 0,0 -12.99997,-2.75 -12.99997,-2.75 0,0 -9.00001,-3.71 -9.00001,-3.71 0,0 -16,-4.82 -16,-4.82 0,0 -12.00001,-3.87 -12.00001,-3.87 0,0 -13,-2.59 -13,-2.59 0,0 -25.00002,-8.02 -25.00002,-8.02 0,0 -20.99997,-6.36 -20.99997,-6.36 0,0 -39.00002,-18.15 -39.00002,-18.15 0,0 -37.99999,-17.25 -37.99999,-17.25 0,0 -16,-8.33 -16,-8.33 0,0 -36,-14.61 -36,-14.61 0,0 -22.00001,-11.33 -22.00001,-11.33 0,0 -24,-11.84 -24,-11.84 0,0 -11,-6.72 -11,-6.72 0,0 -19,-10.3 -19,-10.3 0,0 -36.00003,-19.7601 -36.00003,-19.7601 0,0 -10,-5.35 -10,-5.35 0,0 -27.00001,-15.8599 -27.00001,-15.8599 0,0 -8,-3.17 -8,-3.17 0,0 -8,-4.43 -8,-4.43 0,0 -14,-6.76 -14,-6.76 0,0 -30,-17.59 -30,-17.59 0,0 -13,-7.27 -13,-7.27 0,0 -20,-14.6501 -20,-14.6501 0,0 -8,-5.43 -8,-5.43 -11.69,-9.46 -17,-17.22 -17,-32.6599 0,-5.21 0.18,-12.23 6.02,-14.4 6.73,-2.5 9.37,2.99 14.08,5.72 7,4.06 10.23,3.68 17.9,3.68 -0.86,-1.9 -1.93,-3.7 -1.3,-5.9 1.14,-3.9 11.44,-8.44 15.3,-8.89 0,0 3.91,0 3.91,0 0,0 43.09,0 43.09,0 0,0 20,0.79 20,0.79 -5.72,-7.36 -12.66,-11.13 -20,-16.4901 0,0 -13,-10.08 -13,-10.08 0,0 -11,-6.77 -11,-6.77 0,0 -19,-12.69 -19,-12.69 0,0 -7,-4.88 -7,-4.88 -4.21,-2.82 -13.6,-7.72 -11.85,-14.0899 0.98,-3.58 5.91,-7.72 8.85,-9.83 4.27,-3.06 25.41,-12.5601 31,-14.7001 0,0 31,-12.4099 31,-12.4099 0,0 10,-3.23 10,-3.23 0,0 45.00001,-18.6601 45.00001,-18.6601 0,0 15.00002,-4.88 15.00002,-4.88 0,0 16.00001,-6.76 16.00001,-6.76 0,0 22,-9.78 22,-9.78 0,0 8,-4.14 8,-4.14 0,0 28,-9.6299 28,-9.6299 0,0 13,-6.73 13,-6.73 0,0 31.00001,-14.95 31.00001,-14.95 0,0 48.99998,-21.7801 48.99998,-21.7801 0,0 41.00002,-18.15 41.00002,-18.15 0,0 6.00001,-1.64 6.00001,-1.64 0,0 14,-4.93 14,-4.93 0,0 17.99998,-7.38 17.99998,-7.38 0,0 8,-3.96 8,-3.96 0,0 22.00001,-6.96 22.00001,-6.96 0,0 15.00001,-5.98 15.00001,-5.98 0,0 9,-2.41 9,-2.41 0,0 22.99998,-8.23 22.99998,-8.23 0,0 46.00002,-14.52 46.00002,-14.52 0,0 17.99998,-4.95 17.99998,-4.95 0,0 7,-2.64 7,-2.64 0,0 10,-2.12 10,-2.12 0,0 9,-2.98 9,-2.98 0,0 24,-5.11 24,-5.11 0,0 11,-3.75 11,-3.75 0,0 30,-5.26 30,-5.26 0,0 18,-4.19 18,-4.19 0,0 31,-5.68 31,-5.68 0,0 16,-3.19 16,-3.19 0,0 25,-3.45 25,-3.45 3.2701,-0.16 15.5801,-0.87 17.8501,-2.21 3.9,-2.31 4.09,-14.4 4.15,-18.83 0,0 0,-20 0,-20 0,0 2,-20 2,-20 0,0 0,-4 0,-4 0,0 2.8899,-22 2.8899,-22 0,0 3.39,-28 3.39,-28 0,0 2.21,-9 2.21,-9 0,0 1.31,-9 1.31,-9 0,0 3.75,-17 3.75,-17 0,0 6.27,-33 6.27,-33 0,0 4.27,-15 4.27,-15 0,0 14.1,-50 14.1,-50 0,0 4.96,-14 4.96,-14 0,0 8.6501,-18 8.6501,-18 1.92,-5.97 4.84,-17.71 10.2,-21 0.94,9.17 5.8,24.2 17,24 0,0 2.46,9 2.46,9 1.09,2.55 3.4,4.91 5.26,6.96 6.5999,7.29 10.5099,9.59 20.2799,9.04 -0.56,13.06 -0.31,18.56 8.58,29 2.28,2.68 4.62,5.44 7.42,7.61 5.5801,4.32 8.9101,2.68 11.4001,5.13 1.67,1.63 2.01,6.51 3.07,9.26 1.63,4.26 4.96,9.48 7.85,13 2.25,2.74 7.77,9.33 10.69,10.83 3.61,1.85 6.93,0.41 9.01,2.77 0,0 4.78,10.4 4.78,10.4 2.61,4.71 8.01,10.28 12.2,13.66 2.4999,2.02 4.8099,3.38 7.9999,4 2.95,0.58 6.1001,-0.13 8.3001,1.94 0,0 5.68,9.11 5.68,9.11 5.57,7.06 16.84,13.71 26.02,13.25 5.86,-0.3 9.43,-3.23 12.83,-1.77 1.84,0.8 4.29,3.86 6.21,5.32 2.86,2.18 9.41,5.53 12.96,6.04 3.53,0.76 19.78,0.8 23,0 4.63,-1.44 6.82,-5.11 9.74,-4.21 1.91,0.58 3.17,3.65 6.31,6.19 3.62,2.93 14.36,8.18 18.95,8.83 2.43,0.35 15.48,-0.69 18,-1.49 4.54,-1.45 6.45,-4.34 10,-3.78 3.92,0.63 5.75,4.27 8.26,6.79 2.71,2.73 5.1,3.69 8.74,4.64 4.68,1.23 12.27,2.7 17,2.05 0,0 10.7,-2.68 10.7,-2.68 2.43,0.49 2.33,3.44 6.36,6.04 5.12,3.31 15.82,5.97 21.94,6.01 4.14,0.03 8.29,-1.73 12,-3.47 1.78,-0.84 4.81,-2.92 6.74,-2.57 3.16,0.56 4.44,6.7 12.26,9.7 2.71,1.04 5.22,1.29 8,1.85 14.86,2.99 17.51,-0.81 32,-3.45 0.93,3.08 1.42,5.23 3.26,7.98 4.63,6.93 16.72,11.95 24.74,13.5 5.35,1.04 8.01,-1.01 10.45,0.58 1.92,1.25 4.65,9.19 6.36,11.94 4.03,6.44 13.31,16.69 21.19,17.78 3.81,0.53 7.35,-1 11,-1.78 1.59,6.27 2.05,10.14 5.61,16 z m -571.6101,10 c 0,0 1,1 1,1 0,0 0,-1 0,-1 0,0 -1,0 -1,0 z m 822.0001,58 c 0,0 1,1 1,1 0,0 0,-1 0,-1 0,0 -1,0 -1,0 z M 499.10276,2644.4619 c 0,0 1,1 1,1 0,0 0,-1 0,-1 0,0 -1,0 -1,0 z m 717.00004,516 c 0,0 1,1 1,1 0,0 0,-1 0,-1 0,0 -1,0 -1,0 z m -1,1 c 0,0 1,1 1,1 0,0 0,-1 0,-1 0,0 -1,0 -1,0 z m -11.9999,55 c 0,0 1,1 1,1 0,0 0,-1 0,-1 0,0 -1,0 -1,0 z"
     style="fill:#f4ff00;fill-opacity:1;stroke:#10181e;stroke-width:1.00000012;stroke-opacity:0.8993711"
     inkscape:connector-curvature="0" />
  <path
     id="Selection-7"
     d="m 1131.7814,16.624026 c 8.6499,12.9748 2.6212,28.6037 26.2446,31.5197 3.5714,24.7702 0.6881,43.2496 26.2119,55.700204 -1.3762,19.2657 -3.6697,32.5682 10.7141,48.4591 0,0 13.5646,12.4507 13.5646,12.4507 7.8636,9.4362 3.7679,17.1032 18.5121,29.5538 4.3905,3.7024 52.3582,26.343 58.7801,28.1778 0,0 22.9354,4.9802 22.9354,4.9802 0,0 29.4883,17.2343 29.4883,17.2343 10.8779,4.3577 19.1019,2.4574 25.6548,4.2594 10.0916,2.7851 16.8411,12.7783 26.7689,18.676 14.908,8.912 29.816,7.2082 45.8707,3.3092 8.0601,13.4991 16.4807,23.9511 32.7649,27.5552 9.7311,2.1297 16.71,-1.3761 25.2944,2.1297 7.3393,2.9817 9.895,8.781 23.8527,11.435 21.1334,4.9474 36.1397,-1.4089 45.3138,0 9.3052,0.6881 13.6957,7.372 26.7689,9.6001 12.4833,2.1297 23.3285,-2.6213 32.7647,-1.9004 13.1715,1.0157 18.0207,9.4036 32.7649,11.7625 13.6629,3.2438 24.9996,-1.0156 32.6337,0 13.2042,0.1639 15.3667,8.8138 29.6522,12.2214 13.8595,4.6525 31.9129,1.7693 45.8379,0 18.7088,32.9286 19.3969,18.25 49.1473,32.0439 1.2451,12.6472 3.8662,16.8412 13.2697,25.8515 4.5544,4.3905 10.0916,8.8464 16.2186,10.7468 19.2002,5.996 59.5664,-13.0404 75.359,-23.7872 21.1334,-14.3838 54.9466,-51.6374 75.9162,-70.7393 14.8752,-13.5646 100.1292,-75.7195 117.3963,-84.14 19.0363,-9.2724 62.548,-30.5368 81.912,-18.4793 -14.4493,7.6342 -33.846,18.7415 -45.4448,30.078 -43.2168,42.2666 -86.8595,144.067 -44.6912,199.1446 26.6378,34.7635 98.7859,55.4708 119.6243,68.9371 0,0 -16.3824,9.8295 -16.3824,9.8295 0,0 75.3591,19.8227 75.3591,19.8227 9.5673,0.8191 30.5368,-1.1467 39.842,-3.8007 7.667,-2.1625 18.1189,-8.355 25.5565,-7.7325 8.781,0.7536 41.1527,26.3101 46.0018,34.3048 -23.5251,-1.9004 -41.7751,-6.7496 -65.5295,0 30.3073,4.6853 50.2283,19.5933 65.3985,21.0022 22.5422,2.0642 40.8249,-15.9237 57.2074,-16.3169 15.4977,-0.3604 23.7217,15.0391 34.6979,23.4268 0,0 22.9026,14.482 22.9026,14.482 0,0 -72.0826,0 -72.0826,0 21.5592,3.5059 39.0556,15.8583 55.7001,17.005 23.3614,1.5727 39.3506,-17.2343 52.4238,-18.4466 3.8007,-0.3604 6.3235,0.1311 9.8294,1.6382 0,0 49.1473,35.8448 49.1473,35.8448 0,0 -36.0414,-2.9816 -36.0414,-2.9816 0,0 -36.0413,0 -36.0413,0 11.2384,9.4035 51.0804,25.2289 65.3986,20.1831 12.4834,-4.3904 16.3824,-16.2513 36.1724,-16.7428 22.2474,-0.5897 32.3387,17.2998 49.1471,24.5736 15.5305,7.3066 20.4453,-1.8676 32.7649,0 12.254,1.2778 36.3362,23.4924 42.5943,33.9443 0,0 -52.4238,3.2766 -52.4238,3.2766 11.992,3.1781 35.124,9.731 46.7883,5.7666 12.9748,-4.3578 23.7545,-18.9053 38.2691,-16.317 0,0 41.3492,21.461 41.3492,21.461 13.2043,4.0629 18.2501,-5.2096 30.5697,-3.1454 14.2855,2.3918 12.1558,13.8923 39.6128,15.1701 -9.4364,13.5319 -30.9956,11.8281 -45.8709,15.8582 12.6472,3.6041 23.6562,5.4717 36.0086,0 12.3851,-6.4875 17.005,-16.8739 29.6519,-18.2173 12.68,-1.3106 20.3798,8.2568 39.1869,12.1886 0,0 0,9.8294 0,9.8294 -18.7088,0.4259 -25.5894,1.5727 -42.5944,9.8294 17.5292,-0.7536 47.804,-4.5215 62.4171,-14.2199 0,0 49.0163,-48.0005 49.0163,-48.0005 0,0 63.5963,-45.3464 63.5963,-45.3464 18.0535,-14.6131 35.8776,-35.7137 51.6047,-52.9807 0,0 108.1238,-124.5063 108.1238,-124.5063 0,0 41.9063,-42.5615 41.9063,-42.5615 30.5694,-31.1593 84.3038,-76.9645 124.6374,-93.5108 24.8355,-10.1571 68.2162,-20.0193 95.0178,-21.0678 0,0 65.5295,6.4219 65.5295,6.4219 -7.2738,12.549 -26.2443,11.3695 -39.3175,16.9395 -23.7218,10.0915 -43.2824,24.1148 -61.3359,42.5942 -41.2182,42.2338 -61.9581,93.6418 -90.8895,143.6082 0,0 -68.9701,111.4003 -68.9701,111.4003 -9.8622,19.0364 -41.8732,67.987 -44.1995,85.1885 0,0 -6.553,0 -6.553,0 -2.4246,21.6576 -14.3838,34.2393 -20.7074,52.4237 -8.8793,25.5238 -1.9659,53.4067 17.4309,72.0827 0.6553,20.3469 5.8977,19.2001 14.6786,36.0412 0,0 36.8931,65.5296 36.8931,65.5296 0,0 86.0405,134.33577 86.0405,134.33577 0,0 34.3046,52.4237 34.3046,52.4237 10.1898,12.5817 35.9431,37.7451 48.5248,49.1472 19.2657,17.3981 34.7307,24.7374 58.0593,34.9601 13.5975,5.9303 27.7844,7.9618 36.0411,21.0677 -20.1829,2.523 -45.1169,1.9332 -65.5295,0 -26.4084,-1.671 -35.9103,-1.802 -62.2532,-10.2553 -50.2283,-16.1204 -113.9232,-65.9556 -153.9945,-100.0638 0,0 -176.93,-161.39947 -176.93,-161.39947 -22.018,-19.921 -42.6271,-37.5812 -68.8063,-51.9649 0,0 -32.7318,-17.7258 -32.7318,-17.7258 -23.3942,-15.9892 -26.2119,-34.8618 -42.7582,-47.1486 -11.4677,-8.486 -26.0153,-7.6997 -39.1868,-11.5004 0,0 26.2119,16.3824 26.2119,16.3824 -26.4084,5.3406 -30.5696,20.1175 -49.1473,3.2765 -10.9105,7.8307 -12.9746,4.8492 -22.8369,9.8294 -9.1414,4.6199 -15.1046,13.9906 -26.4412,13.4336 -12.3852,-0.6226 -20.8057,-12.4506 -35.9104,-16.6118 -13.6301,-3.7352 -38.6952,5.1769 -52.4234,9.7312 0,0 55.7,0 55.7,0 0,0 3.2765,9.8294 3.2765,9.8294 -30.7662,2.8833 -32.1752,16.6118 -49.1471,18.4138 -14.7442,1.5727 -22.5095,-10.0915 -34.7636,-11.9591 -14.0888,-2.1953 -37.7123,7.3066 -50.4251,13.2042 0,0 58.9768,0 58.9768,0 -7.0772,7.0772 -49.7699,29.3573 -58.9768,28.5709 -12.8111,-1.0484 -22.6405,-11.8281 -34.141,-12.1229 -10.6156,-0.2621 -34.7305,11.2383 -44.4944,15.9236 0,0 44.9204,0 44.9204,0 0,0 7.5031,6.9462 7.5031,6.9462 -29.1605,5.9304 -29.226,21.3626 -45.9033,24.5081 -13.794,2.5884 -24.7047,-8.4534 -39.2851,-10.6813 -19.2657,-2.9161 -39.9075,9.1413 -55.7002,18.938 0,0 36.0413,-3.2765 36.0413,-3.2765 -5.5045,9.6329 -8.2895,10.1899 -15.039,17.8896 -14.4493,16.51347 -2.3918,16.02197 -30.8317,24.70467 -26.2446,-28.89857 -44.4946,-14.6787 -72.0826,3.2765 0,0 39.3177,-3.2765 39.3177,-3.2765 -7.4376,11.5659 -12.4506,10.2553 -21.723,18.4466 -9.5346,8.4533 -14.8753,22.7715 -30.7006,23.2302 -13.3026,0.426 -23.5251,-11.5988 -39.3178,-9.8622 -10.0588,1.114 -41.0543,18.381 -52.4237,23.8855 0,0 49.1472,-3.2764 49.1472,-3.2764 -4.456,7.241 -35.1567,33.5184 -42.7253,34.6651 -10.6158,1.6055 -19.5606,-6.815 -32.6338,-8.6826 -18.0206,-2.5885 -36.7621,5.3078 -52.4236,13.3353 0,0 19.6588,0 19.6588,0 0,0 3.2765,9.8293 3.2765,9.8293 -30.6023,8.0275 -46.9847,37.2537 -55.6018,65.497 -19.8883,65.0053 15.3666,148.7849 45.6741,205.894 11.3694,21.461 26.7033,29.5539 36.1395,46.4278 -32.5026,-6.0616 -73.8846,-30.6024 -97.377,-53.4067 0,0 -34.2392,-38.3348 -34.2392,-38.3348 0,0 -56.7814,-65.5296 -56.7814,-65.5296 -17.3654,-22.3784 -62.6791,-79.5203 -90.1032,-84.6643 -22.7716,-4.2922 -49.0817,18.4466 -68.8061,26.474 0,0 -137.4811,32.5027 -137.4811,32.5027 0,0 -101.7021,18.1517 -101.7021,18.1517 -65.89,9.6984 -133.4183,14.8097 -199.8653,17.4963 0,0 -58.9767,3.6369 -58.9767,3.6369 0,0 -72.0826,0 -72.0826,0 0,0 -32.7648,0 -32.7648,0 0,0 -114.6768,-10.3209 -114.6768,-10.3209 -0.9502,16.5463 -3.8335,25.786 -16.9722,36.9915 -14.4821,12.3523 -29.9143,12.123 -31.3887,35.0912 -1.9331,29.7831 -7.4704,41.2508 -12.5161,68.806 -3.6697,19.8555 0.4259,23.5251 -8.9776,49.0162 -4.325,11.6315 -22.0835,35.8775 -34.9928,23.0664 0,0 -6.5529,3.2765 -6.5529,3.2765 0,0 -17.2016,-45.7397 -17.2016,-45.7397 -6.9461,-14.9407 -15.0391,-18.6104 -21.9524,-32.8958 0,0 -22.0835,-80.11 -22.0835,-80.11 0,0 -11.7953,-50.9493 -11.7953,-50.9493 -1.2779,-8.2567 -0.7536,-20.7729 -7.5032,-26.6378 -7.1754,-6.2253 -60.3527,-9.4035 -73.45875,-11.3039 0,0 -190.03584,-34.9273 -190.03584,-34.9273 0,0 -101.57094,-36.2706 -101.57094,-36.2706 0,0 -183.48294,-75.8506 -183.48294,-75.8506 0,0 -52.4237,-22.6404 -52.4237,-22.6404 0,0 -39.31778,-21.8213 -39.31778,-21.8213 0,0 -81.91204,-38.4004 -81.91204,-38.4004 0,0 -81.91203,-41.77517 -81.91203,-41.77517 0,0 -36.0413,-22.0179 -36.0413,-22.0179 0,0 -124.506278,-55.6019 -124.506278,-55.6019 0,0 -77.94745,-32.044 -77.94745,-32.044 -6.68403,-5.0458 -10.7141104,-11.4349 -13.6301604,-19.2329 -13.99062,-37.3192 20.8056604,-29.6194 41.8734204,-38.3348 9.23969,-3.8335 11.92636,-9.4691 23.52512,-12.4835 18.80698,-4.8819 64.087958,1.8676 85.155728,3.8663 16.84112,1.6054 21.39542,-1.2451 39.31777,3.8335 -20.54353,-20.9695 -76.899,-47.4108 -104.847368,-61.3685 -9.53458,-4.7837 -36.6311,-12.4507 -37.18807,-24.1805 -0.95016,-20.7401 31.1921,-37.2208 47.01752,-44.4946 0,0 170.376978,-77.5543 170.376978,-77.5543 0,0 81.91204,-33.5839 81.91204,-33.5839 0,0 160.5476,-60.2545 160.5476,-60.2545 0,0 39.31775,-10.9762 39.31775,-10.9762 81.25675,-25.36 162.28415,-51.2769 245.73613,-68.7734 0,0 190.03584,-29.7177 190.03584,-29.7177 0,0 52.42375,-8.486 52.42375,-8.486 -2.6539,-25.36 3.0471,-62.7119 6.553,-88.4651 0,0 29.8487,-163.824 29.8487,-163.824 10.3865,-45.706904 15.6616,-91.250004 35.6809,-134.3357042 6.9789,3.8007 15.0718,7.5031 19.6261,14.3510002 z M 2635.7191,680.50463 c 16.3169,10.5175 31.8473,13.3353 49.1471,3.2764 -15.1374,-8.8137 -32.6991,-7.9618 -49.1471,-3.2764 z m 157.2709,45.8707 c 0,0 0,6.553 0,6.553 18.0534,1.9658 25.36,3.4403 39.3179,-9.8295 0,0 -39.3179,3.2765 -39.3179,3.2765 z m 72.0827,127.7828 c 0,0 45.8709,6.553 45.8709,6.553 -10.9107,-19.3313 -28.2761,-12.9749 -45.8709,-6.553 z M 2213.053,1365.2891 c 0,0 3.2765,3.2765 3.2765,3.2765 0,0 0,-3.2765 0,-3.2765 0,0 -3.2765,0 -3.2765,0 z"
     style="fill:#0000e4;fill-opacity:1;stroke:#000000;stroke-width:3.27648115"
     inkscape:connector-curvature="0" />
  <path
     inkscape:connector-curvature="0"
     id="Selection-75"
     d="m 690.80906,5198.5592 c 0,0 -35.3966,-39.5253 -35.3966,-39.5253 -9.8879,-9.2042 -30.3738,-21.5378 -28.9011,-36.1856 1.3674,-13.4643 22.7737,-21.6955 33.4505,-27.0602 0,0 113.0798,-50.4126 113.0798,-50.4126 0,0 86.7822,-37.816 86.7822,-37.816 0,0 47.3357,-16.8304 47.3357,-16.8304 0,0 28.9274,-12.018 28.9274,-12.018 0,0 34.1869,-9.4146 34.1869,-9.4146 0,0 105.19054,-31.1101 105.19054,-31.1101 0,0 52.5952,-11.4657 52.5952,-11.4657 0,0 89.412,-15.6471 89.412,-15.6471 18.0927,-3.6554 38.8415,-1.8145 55.225,-11.8603 18.8028,-11.5709 30.3212,-40.9453 40.1039,-60.4845 20.591,-41.1821 55.8824,-116.9192 88.7807,-146.1622 12.4125,-10.9924 23.1156,-22.9841 39.4202,-27.4021 0,0 -2.6298,13.1488 -2.6298,13.1488 0,0 13.1488,-2.6297 13.1488,-2.6297 -2.7349,18.9343 1.2886,22.6685 18.4083,13.1488 0,0 -6.2062,21.038 -6.2062,21.038 -0.7889,15.9101 14.2271,21.2485 27.2444,21.0382 -9.7039,23.4574 -0.2105,40.2353 26.2975,36.8167 2.1039,24.9563 4.7599,35.8173 31.5572,34.1868 1.5252,26.1398 15.8575,32.0306 39.4464,26.2976 -0.8941,4.2866 -3.2871,13.7011 -2.8664,17.6458 2.1564,19.8021 27.3759,13.1488 39.6831,11.2816 0,0 -5.2595,10.5191 -5.2595,10.5191 25.8768,6.9688 16.3834,8.9675 44.706,5.2595 0,0 -7.8893,7.8893 -7.8893,7.8893 0,0 0,5.2596 0,5.2596 17.0934,2.6823 30.5578,0.6048 47.3357,-2.6298 11.5446,18.5135 24.9827,15.5682 44.7059,13.1488 4.2077,10.1771 24.8513,9.3882 34.187,7.8892 0,0 2.6297,2.6298 2.6297,2.6298 0,0 -2.6297,7.8893 -2.6297,7.8893 20.328,5.7855 27.6388,14.0956 52.5952,15.5419 26.1398,1.5253 55.488,-17.1197 78.8929,-27.8755 0,0 42.0761,-21.0381 42.0761,-21.0381 28.6381,-13.0173 54.2521,-20.3806 84.1524,-28.9799 26.9814,-7.7579 53.4368,-15.4894 81.5227,-8.652 -7.0215,12.7807 -33.8714,21.5115 -47.3357,29.4533 -22.9316,13.4645 -40.551,32.1884 -58.8278,50.9386 -8.9149,9.1253 -17.0672,12.8858 -23.9309,24.8249 -9.7827,17.0409 -1.8671,29.2693 14.3848,37.553 10.1772,5.1806 27.3496,6.1537 18.4084,20.2755 4.3917,2.7612 15.9626,10.9924 19.9335,12.6228 7.0478,1.4201 13.517,-3.8394 20.7489,0 4.6546,3.3924 7.9419,10.4402 12.9121,15.4105 5.7066,5.7328 27.9018,17.4878 35.8174,18.3031 12.0443,1.2623 13.1225,-8.2049 36.8167,-9.5197 0.5522,24.0097 2.9979,32.5301 26.2976,40.3405 4.9702,1.6568 10.4664,3.7606 15.7786,3.2609 8.5466,-0.8152 17.146,-8.836 34.1869,-12.0443 0.7889,16.173 9.7038,45.8894 31.5571,40.9717 9.2042,-2.0775 24.1675,-16.9883 32.6091,-11.7288 4.865,3.0506 3.1819,11.0977 4.3653,16.1994 1.6831,7.1003 7.7316,15.6471 13.7011,19.7495 13.0699,9.0201 28.2962,-17.4353 43.3911,-13.1751 12.2284,3.4713 4.8388,21.7219 10.6768,30.0582 10.4928,14.937 23.9046,-1.5779 45.153,-11.0713 8.7835,24.3779 -0.2103,26.5606 31.5572,42.0762 7.9156,-13.2014 19.6443,-16.9094 34.3973,-13.1488 -0.4734,4.0235 -0.8941,6.9162 0,10.9661 1.42,4.2339 3.892,8.6519 6.8374,11.9654 12.9647,14.5163 15.91,-6.101 40.8928,-1.8935 -0.263,2.9191 -0.5786,4.7074 0,7.8367 8.2574,19.881 26.4816,6.0748 34.555,7.0741 8.836,1.1045 10.5717,11.4658 22.7475,12.9647 12.991,1.6042 37.8685,-23.7467 46.8361,-33.2402 19.4339,-20.5384 50.281,-56.198 66.901,-78.7876 38.2367,-52.0167 72.4236,-108.0832 122.8888,-149.6861 19.9073,-16.4097 68.479,-52.6216 94.6715,-47.5461 -4.5232,12.6229 -8.8887,15.8049 -21.0382,21.0381 2.7087,18.7502 -9.283,20.6962 -18.8028,34.2921 0,0 -24.3515,41.971 -24.3515,41.971 -6.2063,9.1253 -18.4084,31.899 -22.3267,42.0762 0,0 -6.89,21.0381 -6.89,21.0381 0,0 -30.6367,71.0036 -30.6367,71.0036 0,0 -16.8305,36.8167 -16.8305,36.8167 0,0 -14.2533,38.7101 -14.2533,38.7101 -2.6035,11.3868 -0.5786,21.9322 -10.5454,29.6637 9.0464,22.8 0.7889,27.4547 2.3668,41.2084 0,0 5.1543,27.1654 5.1543,27.1654 0,0 0,31.5571 0,31.5571 2.6035,18.6714 10.8347,35.0548 16.962,52.5953 0,0 11.6236,43.6015 11.6236,43.6015 0,0 23.2997,61.4838 23.2997,61.4838 0,0 4.2076,19.355 4.2076,19.355 0,0 24.8249,62.2728 24.8249,62.2728 0,0 28.0859,55.225 28.0859,55.225 6.9425,11.6498 13.8062,16.0942 17.5931,28.533 -6.1799,0.9204 -9.625,1.5778 -15.7786,0 -23.4049,-7.8894 -67.4008,-49.2292 -84.2839,-67.9794 -32.2409,-35.8963 -54.699,-57.4866 -79.8132,-99.931 0,0 -59.1959,-128.8583 -59.1959,-128.8583 0,0 -12.4651,-21.0381 -12.4651,-21.0381 0,0 -12.2547,-26.2976 -12.2547,-26.2976 -18.0401,-35.0548 -37.0533,-37.0534 -72.8181,-36.8167 -5.8644,0.026 -12.6755,-0.2893 -17.935,2.6823 -5.7328,3.261 -9.9668,10.3613 -13.6221,15.726 -6.2852,-2.656 -18.7502,-10.6768 -23.6679,-11.0187 -15.3052,-1.0519 -23.8782,18.2243 -28.9274,29.4271 -13.6484,-5.8381 -19.1446,-10.6506 -26.2976,-23.6679 0,0 -5.2595,0 -5.2595,0 0,0 -21.0381,39.4464 -21.0381,39.4464 -16.962,-5.7855 -18.9869,-13.3328 -26.2977,-16.0152 -16.357,-6.0485 -23.6678,25.1931 -32.2671,28.0858 -8.6519,2.8928 -17.9876,-9.1778 -25.5876,-11.3605 -4.8125,-1.3938 -8.836,-0.052 -13.0436,2.3404 -13.0963,7.5475 -13.1225,17.7772 -13.2541,31.1365 -26.1661,-2.7613 -36.7114,-23.3786 -57.4076,-9.8354 -14.227,9.3094 -7.9156,25.6402 -17.3564,29.0852 -10.598,3.8658 -22.5635,-12.2284 -31.1628,-12.807 -15.0422,-1.0256 -16.7515,14.9371 -30.8208,19.8548 -0.2104,21.301 -17.9613,7.4422 -28.9274,5.1017 -6.4165,-1.6042 -11.9917,-0.5522 -18.4083,0 -4.0235,24.4042 -34.3184,25.0353 -30.4263,50.1233 2.9979,19.2498 19.7495,32.0568 33.0561,44.1799 0,0 57.8547,54.9095 57.8547,54.9095 17.3828,14.5426 40.6562,27.7966 47.3358,50.807 0,0 -21.0381,0 -21.0381,0 -24.825,-0.2892 -41.4977,-9.4408 -63.1143,-20.4069 -26.0873,-13.2014 -59.8271,-31.7939 -83.0479,-49.124 0,0 -40.551,-31.5834 -40.551,-31.5834 -23.7467,-18.9606 -39.0519,-31.4257 -71.0035,-30.3212 0,0 -92.0417,23.9308 -92.0417,23.9308 -29.6111,7.863 -59.2486,9.8616 -89.4119,13.5959 0,0 -42.8125,6.5218 -42.8125,6.5218 0,0 -59.7482,3.6816 -59.7482,3.6816 0,0 -94.9082,9.9406 -94.9082,9.9406 0,0 -73.3966,0 -73.3966,0 -13.7274,0.1052 -18.198,-1.6042 -31.5571,2.7613 3.9709,20.4595 -10.5454,44.9426 -15.9101,64.6395 -4.8125,17.5668 -7.3633,34.7654 -8.126,52.9634 0,0 -1.4463,32.3986 -1.4463,32.3986 -1.7357,6.5481 -5.3911,12.4651 -8.7046,18.3032 -8.4415,-1.5516 -19.0395,-2.6824 -26.2976,-7.2055 -27.3758,-17.0672 -58.144,-77.4203 -67.2693,-108.504 -5.5751,-19.0132 -14.0693,-61.852 -32.7142,-70.8458 -6.2326,-3.0243 -32.7143,-2.3405 -42.0236,-3.5502 0,0 -49.9656,-7.0214 -49.9656,-7.0214 0,0 -23.6679,0 -23.6679,0 0,0 -49.9654,-6.1537 -49.9654,-6.1537 0,0 -60.4846,-12.1495 -60.4846,-12.1495 0,0 -46.5993,-13.2803 -46.5993,-13.2803 0,0 -53.33164,-11.2028 -53.33164,-11.2028 -48.7821,-11.5446 -134.0916,-38.6049 -176.1941,-63.6928 -42.4706,-25.3247 -117.34,-69.8465 -160.4155,-89.3068 -14.1218,-6.3903 -54.4098,-22.4582 -57.4603,-38.4471 -3.4713,-18.2505 25.0617,-19.2236 36.4222,-21.4851 0,0 94.6715,-15.0423 94.6715,-15.0423 0,0 26.2976,2.4194 26.2976,2.4194 -13.8326,-18.2506 -27.6125,-29.0852 -42.7862,-45.153 z M 2961.0038,4936.03 c 0,0 -2.6297,2.6298 -2.6297,2.6298 0,0 0,-2.6298 0,-2.6298 0,0 2.6297,0 2.6297,0 z"
     style="fill:#505f77;fill-opacity:1;stroke:#000000;stroke-width:2.62976217" />
</svg>
